# xmcd
#
# Track frame offsets:
#	150
#	12102
#	26387
#	41800
#	61645
#	81831
#	97641
#	113759
#	132039
#	147723
#	166065
#
# Disc length: 2394 seconds
#
# Revision: 0
# Processed by: cddbd v1.5.2PL0 Copyright (c) Steve Scherf et al.
# Submitted via: EasyCDDAExtractor 15.3.0.1
#
DISCID=7c09580b
DTITLE=Peter Smed Andersen - Chevy man
DYEAR=2013
DGENRE=country
TTITLE0=Rolling down E 45
TTITLE1=Mountain of love
TTITLE2=The boys are having fun
TTITLE3=She thinks I still care
TTITLE4=Hell is in control
TTITLE5=Mary Ann
TTITLE6=I thought we were two
TTITLE7=German food
TTITLE8=Chevy man
TTITLE9=See your blue eyes
TTITLE10=A token from granddad to son
EXTD=
EXTT0=
EXTT1=
EXTT2=
EXTT3=
EXTT4=
EXTT5=
EXTT6=
EXTT7=
EXTT8=
EXTT9=
EXTT10=
PLAYORDER=
